<svg width="40" height="40" viewBox="0 0 40 40" fill="none" xmlns="http://www.w3.org/2000/svg">
<rect x="2" y="2" width="36" height="36" rx="4" fill="url(#paint0_linear_3_115)"/>
<path opacity="0.5" d="M10.6667 14.6667C10.6667 14.313 10.5262 13.9739 10.2761 13.7238C10.0261 13.4738 9.68695 13.3333 9.33333 13.3333C8.97971 13.3333 8.64057 13.4738 8.39052 13.7238C8.14048 13.9739 8 14.313 8 14.6667L8 25.3333C8 25.6869 8.14048 26.0261 8.39052 26.2761C8.64057 26.5262 8.97971 26.6667 9.33333 26.6667C9.68696 26.6667 10.0261 26.5262 10.2761 26.2761C10.5262 26.0261 10.6667 25.6869 10.6667 25.3333L10.6667 14.6667ZM13.3333 14.6667C13.3333 14.313 13.4738 13.9739 13.7239 13.7238C13.9739 13.4738 14.313 13.3333 14.6667 13.3333C15.0203 13.3333 15.3594 13.4738 15.6095 13.7238C15.8595 13.9739 16 14.313 16 14.6667L16 25.3333C16 25.6869 15.8595 26.0261 15.6095 26.2761C15.3594 26.5262 15.0203 26.6667 14.6667 26.6667C14.313 26.6667 13.9739 26.5262 13.7239 26.2761C13.4738 26.0261 13.3333 25.6869 13.3333 25.3333L13.3333 14.6667ZM20 13.3333C20.3536 13.3333 20.6928 13.4738 20.9428 13.7238C21.1929 13.9739 21.3333 14.313 21.3333 14.6667L21.3333 25.3333C21.3333 25.6869 21.1929 26.0261 20.9428 26.2761C20.6928 26.5262 20.3536 26.6667 20 26.6667C19.6464 26.6667 19.3072 26.5262 19.0572 26.2761C18.8071 26.0261 18.6667 25.6869 18.6667 25.3333L18.6667 14.6667C18.6667 14.313 18.8071 13.9739 19.0572 13.7238C19.3072 13.4738 19.6464 13.3333 20 13.3333ZM32 14.6667C32 14.313 31.8595 13.9739 31.6095 13.7238C31.3594 13.4738 31.0203 13.3333 30.6667 13.3333C30.313 13.3333 29.9739 13.4738 29.7239 13.7238C29.4738 13.9739 29.3333 14.313 29.3333 14.6667L29.3333 25.3333C29.3333 25.6869 29.4738 26.0261 29.7239 26.2761C29.9739 26.5262 30.313 26.6667 30.6667 26.6667C31.0203 26.6667 31.3594 26.5262 31.6095 26.2761C31.8595 26.0261 32 25.6869 32 25.3333L32 14.6667Z" fill="white"/>
<path fill-rule="evenodd" clip-rule="evenodd" d="M25.3333 8C25.687 8 26.0261 8.14048 26.2761 8.39052C26.5262 8.64057 26.6667 8.97971 26.6667 9.33333L26.6667 30.6667C26.6667 31.0203 26.5262 31.3594 26.2761 31.6095C26.0261 31.8595 25.687 32 25.3333 32C24.9797 32 24.6406 31.8595 24.3905 31.6095C24.1405 31.3594 24 31.0203 24 30.6667L24 9.33333C24 8.97971 24.1405 8.64057 24.3905 8.39052C24.6406 8.14048 24.9797 8 25.3333 8Z" fill="white"/>
<defs>
<linearGradient id="paint0_linear_3_115" x1="2" y1="2" x2="1.59351" y2="37.5841" gradientUnits="userSpaceOnUse">
<stop stop-color="#0075FF"/>
<stop offset="1" stop-color="#00C2FF"/>
</linearGradient>
</defs>
</svg>
