<svg id="exportSVG" visibility="visible" xmlns="http://www.w3.org/2000/svg" xmlns:xlink="http://www.w3.org/1999/xlink" version="1.1" data-info="draw.ninja" data-name="pluginIcon" viewBox="0 0 40 40" width="40" height="40" style="position: fixed; top: 0px; left: 0px;"><defs id="defsExport"><filter id="filter0"><feGaussianBlur stdDeviation="0"></feGaussianBlur></filter><pattern id="patternImage" patternUnits="userSpaceOnUse" x="0" y="0" width="1" height="1" data-x="0" data-y="0" data-width="1" data-height="1" data-multx="1" data-multy="1" patternTransform="matrix(1,0,0,1,0,0)" data-transs="0" data-transf="0" data-source="patternImage" data-draw="1" fill="#B3B3B3" fill-opacity="1"></pattern><pattern id="pattern0" patternUnits="userSpaceOnUse" x="0" y="0" width="10" height="10" data-x="0" data-y="0" data-width="10" data-height="10" data-multx="1" data-multy="1" stroke="none" patternTransform="matrix(1,0,0,1,0,0)" data-transs="0" data-transf="0" data-source="Pattern 0" data-draw="1" fill="#B3B3B3" fill-opacity="1"><path transform="matrix(1,0,0,1,0,0)" d="M0 0 L5 0 L5 5 L0 5 L0 0 Z"></path></pattern><pattern id="pattern1" patternUnits="userSpaceOnUse" x="0" y="0" width="10" height="10" data-x="0" data-y="0" data-width="10" data-height="10" data-multx="1" data-multy="1" stroke="none" patternTransform="matrix(1,0,0,1,0,0)" data-transs="0" data-transf="0" data-source="Pattern 1" data-draw="1" fill="#B3B3B3" fill-opacity="1"><path transform="matrix(1,0,0,1,0,0)" d="M0 5 L5 0 L10 5 L5 10 L0 5 Z"></path></pattern><pattern id="pattern2" patternUnits="userSpaceOnUse" x="0" y="0" width="10" height="10" data-x="0" data-y="0" data-width="10" data-height="10" data-multx="1" data-multy="1" stroke="none" patternTransform="matrix(1,0,0,1,0,0)" data-transs="0" data-transf="0" data-source="Pattern 2" data-draw="1" fill="#B3B3B3" fill-opacity="1"><path transform="matrix(1,0,0,1,0,0)" d="M0 9 L5 1 L10 9 L0 9 Z"></path></pattern><pattern id="pattern3" patternUnits="userSpaceOnUse" x="0" y="0" width="10" height="10" data-x="0" data-y="0" data-width="10" data-height="10" data-multx="1" data-multy="1" stroke="none" patternTransform="matrix(1,0,0,1,0,0)" data-transs="0" data-transf="0" data-source="Pattern 3" data-draw="1" fill="#B3B3B3" fill-opacity="1"><path transform="matrix(1,0,0,1,0,0)" d="M0 5 C0 2.25 2.25 0 5 0 C7.75 0 10 2.25 10 5 C10 7.75 7.75 10 5 10 C2.25 10 0 7.75 0 5 Z"></path></pattern><pattern id="pattern4" patternUnits="userSpaceOnUse" x="0" y="0" width="10" height="10" data-x="0" data-y="0" data-width="10" data-height="10" data-multx="1" data-multy="1" stroke="none" patternTransform="matrix(1,0,0,1,0,0)" data-transs="0" data-transf="0" data-source="Pattern 4" data-draw="1" fill="#B3B3B3" fill-opacity="1"><path transform="matrix(1,0,0,1,0,0)" d="M0 5 L4 4 L5 0 L6 4 L10 5 L6 6 L5 10 L4 6 L0 5 Z"></path></pattern><pattern id="pattern5" patternUnits="userSpaceOnUse" x="0" y="0" width="10" height="10" data-x="0" data-y="0" data-width="10" data-height="10" data-multx="1" data-multy="1" stroke="none" patternTransform="matrix(1,0,0,1,0,0)" data-transs="0" data-transf="0" data-source="Pattern 5" data-draw="1" fill="#B3B3B3" fill-opacity="1"><path transform="matrix(1,0,0,1,0,0)" d="M5 10 C-5 2.75 3 -1.75 5 1 C7 -1.75 15 2.75 5 10 Z"></path></pattern><pattern id="pattern6" patternUnits="userSpaceOnUse" x="0" y="0" width="10" height="10" data-x="0" data-y="0" data-width="10" data-height="10" data-multx="1" data-multy="1" stroke="none" patternTransform="matrix(1,0,0,1,0,0)" data-transs="0" data-transf="0" data-source="Pattern 6" data-draw="1" fill="#B3B3B3" fill-opacity="1"><path transform="matrix(1,0,0,1,0,0)" d="M3 0 L7 0 L7 10 L3 10 L3 0 Z"></path></pattern><pattern id="pattern7" patternUnits="userSpaceOnUse" x="0" y="0" width="10" height="10" data-x="0" data-y="0" data-width="10" data-height="10" data-multx="1" data-multy="1" stroke="none" patternTransform="matrix(1,0,0,1,0,0)" data-transs="0" data-transf="0" data-source="Pattern 7" data-draw="1" fill="#B3B3B3" fill-opacity="1"><path transform="matrix(1,0,0,1,0,0)" d="M10 3 L10 7 L0 7 L0 3 L10 3 Z"></path></pattern><pattern id="pattern8" patternUnits="userSpaceOnUse" x="0" y="0" width="10" height="10" data-x="0" data-y="0" data-width="10" data-height="10" data-multx="1" data-multy="1" stroke="none" patternTransform="matrix(1,0,0,1,0,0)" data-transs="0" data-transf="0" data-source="Pattern 8" data-draw="1" fill="#B3B3B3" fill-opacity="1"><path transform="matrix(1,0,0,1,0,0)" d="M0 10 L3 3 L10 0 L7 7 L0 10 Z"></path></pattern><pattern id="pattern9" patternUnits="userSpaceOnUse" x="0" y="0" width="10" height="10" data-x="0" data-y="0" data-width="10" data-height="10" data-multx="1" data-multy="1" stroke="none" patternTransform="matrix(1,0,0,1,0,0)" data-transs="0" data-transf="0" data-source="Pattern 9" data-draw="1" fill="#B3B3B3" fill-opacity="1"><path transform="matrix(1,0,0,1,0,0)" d="M0 4 L10 4 L10 6 L0 6 L0 4 Z M4 10 L4 0 L6 0 L6 10 L4 10 Z"></path></pattern><linearGradient id="linearSystem" gradientUnits="objectBoundingBox" x1="0%" y1="50%" x2="100%" y2="50%" spreadMethod="pad"><stop offset="50%" stop-color="#D0D0D0" stop-opacity="1"></stop><stop offset="100%" stop-color="transparent" stop-opacity="1"></stop></linearGradient><linearGradient id="linearSystem1" gradientUnits="objectBoundingBox" x1="0%" y1="50%" x2="100%" y2="50%" spreadMethod="pad"><stop offset="30%" stop-color="#D0D0D0" stop-opacity="1"></stop><stop offset="100%" stop-color="transparent" stop-opacity="1"></stop></linearGradient><linearGradient id="linearSystem2" gradientUnits="objectBoundingBox" x1="0%" y1="50%" x2="50%" y2="50%" spreadMethod="repeat"><stop offset="30%" stop-color="#D0D0D0" stop-opacity="1"></stop><stop offset="100%" stop-color="transparent" stop-opacity="1"></stop></linearGradient><linearGradient id="linearSystem3" gradientUnits="objectBoundingBox" x1="0%" y1="50%" x2="50%" y2="50%" spreadMethod="reflect"><stop offset="30%" stop-color="#D0D0D0" stop-opacity="1"></stop><stop offset="100%" stop-color="transparent" stop-opacity="1"></stop></linearGradient><radialGradient id="radialSystem" gradientUnits="objectBoundingBox" r="0.5" cx="0.5" fx="0.5" cy="0.5" fy="0.5" spreadMethod="pad"><stop offset="50%" stop-color="#D0D0D0" stop-opacity="1"></stop><stop offset="100%" stop-color="transparent" stop-opacity="1"></stop></radialGradient><pattern id="patternSystem" patternUnits="userSpaceOnUse" x="0" y="0" width="6" height="8"><path stroke="#D0D0D0" stroke-width="5" fill="none" d="M0 0 L0 10"></path></pattern><linearGradient id="linear0" gradientUnits="objectBoundingBox" x1="0%" y1="50%" x2="100%" y2="50%" spreadMethod="pad"><stop offset="0%" stop-color="#FF8000" stop-opacity="1"></stop><stop offset="100%" stop-color="#FFFF00" stop-opacity="1"></stop></linearGradient><linearGradient id="linear1" gradientUnits="objectBoundingBox" x1="0%" y1="50%" x2="100%" y2="50%" spreadMethod="pad"><stop offset="0%" stop-color="#FFFF00" stop-opacity="1"></stop><stop offset="100%" stop-color="#FF8000" stop-opacity="1"></stop></linearGradient><linearGradient id="linearImport" gradientUnits="objectBoundingBox" x1="0%" y1="50%" x2="100%" y2="50%" spreadMethod="pad"><stop offset="0%" stop-color="#FFFFFF" stop-opacity="0.1"></stop><stop offset="100%" stop-color="#000000" stop-opacity="0.1"></stop></linearGradient><radialGradient id="radial0" gradientUnits="objectBoundingBox" r="0.5" cx="0.5" fx="0.5" cy="0.5" fy="0.5" spreadMethod="pad"><stop offset="0%" stop-color="#FF8000" stop-opacity="1"></stop><stop offset="100%" stop-color="#FFFF00" stop-opacity="1"></stop></radialGradient><radialGradient id="radial1" gradientUnits="objectBoundingBox" r="0.5" cx="0.5" fx="0.5" cy="0.5" fy="0.5" spreadMethod="pad"><stop offset="0%" stop-color="#FFFF00" stop-opacity="1"></stop><stop offset="100%" stop-color="#FF8000" stop-opacity="1"></stop></radialGradient><radialGradient id="radialImport" gradientUnits="objectBoundingBox" r="0.5" cx="0.5" fx="0.5" cy="0.5" fy="0.5" spreadMethod="pad"><stop offset="0%" stop-color="#FFFFFF" stop-opacity="0.1"></stop><stop offset="100%" stop-color="#000000" stop-opacity="0.1"></stop></radialGradient><marker id="path4marker7" viewBox="0 0 10 10" refX="5" refY="5" markerWidth="5" markerHeight="5" orient="auto" fill="#FFFFFF" fill-opacity="1"><path id="marker7Path" d="M6 0 L4 0 L4 10 L6 10 L6 0 Z"></path></marker><marker id="path5marker11" viewBox="0 0 10 10" refX="5" refY="5" markerWidth="5" markerHeight="5" orient="auto" fill="#000000" fill-opacity="1"><path id="marker11Path" d="M10 0 L0 5 L10 10 L10 0 Z"></path></marker><marker id="path5marker10" viewBox="0 0 10 10" refX="5" refY="5" markerWidth="5" markerHeight="5" orient="auto" fill="#808080" fill-opacity="1"><path id="marker10Path" d="M10 0 L0 5 L10 10 L8 5 L10 0 Z"></path></marker><marker id="path6marker10" viewBox="0 0 10 10" refX="5" refY="5" markerWidth="5" markerHeight="5" orient="auto" fill="#808080" fill-opacity="1"><path id="marker10Path" d="M10 0 L0 5 L10 10 L8 5 L10 0 Z"></path></marker><marker id="path6marker2" viewBox="0 0 10 10" refX="5" refY="5" markerWidth="5" markerHeight="5" orient="auto" fill="#FFFFFF" fill-opacity="1"><path id="marker2Path" d="M0 0 L10 5 L0 10 L2 5 L0 0 Z"></path></marker><marker id="path9marker7" viewBox="0 0 10 10" refX="5" refY="5" markerWidth="5" markerHeight="5" orient="auto" fill="#808080" fill-opacity="1"><path id="marker7Path" d="M6 0 L4 0 L4 10 L6 10 L6 0 Z"></path></marker><marker id="path9marker7" viewBox="0 0 10 10" refX="5" refY="5" markerWidth="5" markerHeight="5" orient="auto" fill="#808080" fill-opacity="1"><path id="marker7Path" d="M6 0 L4 0 L4 10 L6 10 L6 0 Z"></path></marker><marker id="path12marker10" viewBox="0 0 10 10" refX="5" refY="5" markerWidth="5" markerHeight="5" orient="auto" fill="#FFFFFF" fill-opacity="1"><path id="marker10Path" d="M10 0 L0 5 L10 10 L8 5 L10 0 Z"></path></marker><marker id="path13marker2" viewBox="0 0 10 10" refX="5" refY="5" markerWidth="5" markerHeight="5" orient="auto" fill="#808080" fill-opacity="1"><path id="marker2Path" d="M0 0 L10 5 L0 10 L2 5 L0 0 Z"></path></marker><marker id="path5marker8" viewBox="0 0 10 10" refX="5" refY="5" markerWidth="5" markerHeight="5" orient="auto" fill="#808080" fill-opacity="1"><path id="marker8Path" d="M10 0 L1 5 L10 10 L10 0 Z M0 0 L1 0 L1 10 L0 10 L0 0 Z"></path></marker><marker id="path5marker9" viewBox="0 0 10 10" refX="5" refY="5" markerWidth="5" markerHeight="5" orient="auto" fill="#808080" fill-opacity="1"><path id="marker9Path" d="M10 0 L5 5 L10 10 L8 10 L3 5 L8 0 L10 0 Z"></path></marker></defs><rect id="pageExport" x="0" y="0" width="40" height="40" fill="none" fill-opacity="0" stroke="none" stroke-width="0"></rect><g id="objectsExport" visibility="visible"><path id="path6" visibility="hidden" stroke="#FFFFFF" stroke-width="1.2" stroke-opacity="1" stroke-linecap="round" stroke-linejoin="round" stroke-dasharray="none" marker-start="none" marker-end="url(#path6marker2)" fill="#999999" fill-rule="evenodd" fill-opacity="1" data-name="curve" data-title="curve" deg="0" data-sw="1.2" data-grad="0" data-group="0" data-edit="1" filter="none" d="M23.001 14.066 L35.068 14.066 " data-centerx="29.021" data-centery="14.081"></path><path id="path13" visibility="hidden" stroke="#808080" stroke-width="1" stroke-opacity="1" stroke-linecap="round" stroke-linejoin="round" stroke-dasharray="none" marker-start="none" marker-end="url(#path13marker2)" fill="#999999" fill-rule="evenodd" fill-opacity="1" data-name="curve" data-title="curve" deg="0" data-sw="1" data-grad="0" data-group="0" data-edit="1" filter="none" d="M23.001 14.066 L35.068 14.066 " data-centerx="29.021" data-centery="14.081"></path><g id="group10" visibility="hidden" stroke="#000000" stroke-width="NaN" stroke-opacity="1" stroke-dasharray="none" fill="none" fill-opacity="1" data-name="group" data-title="text" deg="0" data-edit="1" data-centerx="30.323" data-centery="27.347"><text id="text11" visibility="hidden" font-family="Verdana" font-size="18" font-weight="normal" font-style="normal" transform="matrix(0.995,0,0,1.253,-876.229,-621.693)" stroke="#FFFFFF" stroke-width="0.5" stroke-opacity="1" stroke-dasharray="none" fill="#808080" fill-opacity="1" data-name="text" data-title="text" deg="0" data-sw="0.5" data-group="group10" data-trans="translate(-880,-496) matrix(0.995,0,0,1.253,3.771,-125.693)" data-edit="1" filter="none" x="905.3333333333333" y="525.1333333333333" data-centerx="31.445" data-centery="24.48">A</text></g><g id="group2" visibility="visible" stroke="#000000" stroke-width="NaN" stroke-opacity="1" stroke-dasharray="none" fill="none" fill-opacity="1" data-name="group" data-title="text" deg="0" data-edit="1" data-centerx="29.64" data-centery="19.134"><text id="text3" visibility="visible" font-family="Verdana" font-size="20" font-weight="normal" font-style="normal" transform="matrix(1.132,0,0,1.516,-1002.501,-765.05)" stroke="none" stroke-width="2" stroke-opacity="1" stroke-dasharray="none" fill="#afb1b3" fill-opacity="1" data-name="text" data-title="text" deg="0" data-sw="2" data-group="group2" data-trans="translate(-880,-496) matrix(1.132,0,0,1.516,-122.501,-269.05)" data-edit="1" filter="none" x="905.3333333333333" y="525.1333333333333" data-centerx="32.671" data-centery="24.493">A</text></g><path id="path12" visibility="hidden" stroke="#FFFFFF" stroke-width="1.2" stroke-opacity="1" stroke-linecap="round" stroke-linejoin="round" stroke-dasharray="none" marker-start="url(#path12marker10)" marker-end="none" fill="none" fill-rule="evenodd" fill-opacity="1" data-name="curve" data-title="curve" deg="0" data-sw="1.2" data-grad="0" data-group="0" data-edit="1" filter="none" d="M5.334 29.133 L17.401 29.133 " data-centerx="11.369" data-centery="29.13"></path><path id="path5" visibility="hidden" stroke="#808080" stroke-width="2" stroke-opacity="1" stroke-linecap="round" stroke-linejoin="round" stroke-dasharray="none" marker-start="url(#path5marker9)" marker-end="none" fill="none" fill-rule="evenodd" fill-opacity="1" data-name="curve" data-title="curve" deg="0" data-sw="2" data-grad="0" data-group="0" data-edit="1" filter="none" d="M5.601 29.533 L15.068 29.533 " data-centerx="10.335" data-centery="29.531"></path><g id="group0" visibility="hidden" stroke="#000000" stroke-width="NaN" stroke-opacity="1" stroke-dasharray="none" fill="none" fill-opacity="1" data-name="group" data-title="text" deg="0" data-edit="1" data-centerx="9.995" data-centery="13.165"><text id="text1" visibility="hidden" font-family="Verdana" font-size="18" font-weight="normal" font-style="normal" transform="matrix(1,0,0,1.247,-886,-614.379)" stroke="#FFFFFF" stroke-width="0.5" stroke-opacity="1" stroke-dasharray="none" fill="#FF8080" fill-opacity="1" data-name="text" data-title="text" deg="0" data-sw="0.5" data-group="group0" data-trans="translate(-880,-496) matrix(1,0,0,1.247,-6,-118.379)" data-edit="1" filter="none" x="887" y="510.4" data-centerx="16" data-centery="2.825">あ</text></g><g id="group7" visibility="visible" stroke="#000000" stroke-width="NaN" stroke-opacity="1" stroke-dasharray="none" fill="none" fill-opacity="1" data-name="group" data-title="text" deg="0" data-edit="1" data-centerx="10.35" data-centery="17.633"><text id="text8" visibility="visible" font-family="Verdana" font-size="20" font-weight="normal" font-style="normal" transform="matrix(1.406,0,0,1.325,-1246.156,-648.262)" stroke="none" stroke-width="2" stroke-opacity="1" stroke-dasharray="none" fill="#afb1b3" fill-opacity="1" data-name="text" data-title="text" deg="0" data-sw="2" data-group="group7" data-trans="translate(-880,-496) matrix(1.406,0,0,1.325,-366.156,-152.262)" data-edit="1" filter="none" x="887" y="510.4" data-centerx="6.106" data-centery="15.099">$</text></g><path id="path4" visibility="hidden" stroke="#FFFFFF" stroke-width="1.2" stroke-opacity="1" stroke-linecap="round" stroke-linejoin="round" stroke-dasharray="none" marker-start="url(#path4marker7)" marker-end="url(#path4marker7)" fill="#999999" fill-rule="evenodd" fill-opacity="1" data-name="curve" data-title="curve" deg="0" data-sw="1.2" data-grad="0" data-group="0" data-edit="1" filter="none" d="M20.334 36.666 L20.267 4.333 " data-centerx="20.302" data-centery="20.498"></path><path id="path9" visibility="visible" stroke="#afb1b3" stroke-width="2" stroke-opacity="1" stroke-linecap="round" stroke-linejoin="round" stroke-dasharray="none" marker-start="none" marker-end="none" fill="#afb1b3" fill-rule="evenodd" fill-opacity="1" data-name="curve" data-title="curve" deg="0" data-sw="2" data-grad="0" data-group="0" data-edit="1" filter="none" d="M19.801 36.132 L19.734 3.799 " data-centerx="19.767" data-centery="19.963"></path></g><g id="settings" visibility="hidden" data-dn0="primalDraw" data-dn1="#FAFAFA" data-dn2="#D2D2D2" data-dn3="18" data-dn4="#FFFFFF" data-dn5="#B3B3B3" data-dn6="1" data-dn7="1" data-dn8="1" data-dn9="round" data-dn10="round" data-dn11="none" data-dn12="none" data-dn13="none" data-dn14="evenodd" data-dn15="10" data-dn16="1" data-dn17="40" data-dn18="40" data-dn19="1" data-dn20="0" data-dn21="1" data-dn22="1" data-dn23="14" data-dn24="path6,path13,group10,group2,path12,path5,group0,group7,path4,path9" data-dn25="2" data-dn26="url(#linear0)" data-dn27="url(#linear1)" data-dn28="url(#radial0)" data-dn29="url(#radial1)" data-dn30="#FF8000" data-dn31="#FFFF00" data-dn32="#000000" data-dn33="1" data-dn34="1" data-dn35="10" data-dn36="" data-dn37="0" data-dn38="98"></g></svg>